# xmcd
#
# Track frame offsets:
#	150
#	37568
#	98694
#	174216
#	220813
#	254209
#	295320
#	322623
#
# Disc length: 4658 seconds
#
# Revision: 0
# Processed by: cddbd v1.5.2PL0 Copyright (c) Steve Scherf et al.
# Submitted via: audiograbber 1.83.01
#
DISCID=62123008
DTITLE=Grateful Dead - 94-03-05 Desert Sky Pavilion, Phoenix AZ
DYEAR=1900
DGENRE=
TTITLE0=Saint Of Circumstance
TTITLE1=He's Gone
TTITLE2=Drums
TTITLE3=Space
TTITLE4=All Along The Watchtower
TTITLE5=Stella Blue
TTITLE6=One More Saturday Night
TTITLE7=I Fought The Law
EXTD=
EXTT0=
EXTT1=
EXTT2=
EXTT3=
EXTT4=
EXTT5=
EXTT6=
EXTT7=
PLAYORDER=
